<svg width="614" height="176" viewBox="0 0 614 176" fill="none" xmlns="http://www.w3.org/2000/svg">
<g clip-path="url(#clip0_39_691)">
<path d="M-193 -399C137 -399 467 -399 807 -399C807 -69 807 261 807 601C477 601 147 601 -193 601C-193 271 -193 -59 -193 -399Z" fill="white"/>
<path d="M284.875 29.625C291.459 36.0225 293.15 42.0881 293.359 51.0906C293.424 61.4165 293.075 70.6724 285.5 78.5625C271.442 91.5796 250.209 89.7651 232.355 89.1953C220.465 88.5031 210.176 85.1758 201.625 76.625C195.537 66.7894 194.161 54.0457 196.719 42.8555C199.609 34.3372 203.47 29.2566 211.547 25.0977C231.761 16.053 267.084 15.2292 284.875 29.625Z" fill="#42506F"/>
<path d="M0 23C16.6095 22.9198 16.6095 22.9198 23.7324 22.9024C28.5778 22.8905 33.423 22.8764 38.2683 22.8492C42.1781 22.8273 46.0879 22.8154 49.9977 22.8103C51.4835 22.8066 52.9693 22.7994 54.4551 22.7886C75.3942 22.6417 75.3942 22.6417 81 27.9375C81.5569 28.4416 82.1137 28.9456 82.6875 29.4649C86.4087 33.8173 85.4036 40.6469 85 46C83.6075 49.7795 82.058 52.3789 79 55C79.9281 55.4125 80.8562 55.825 81.8125 56.25C85.043 58.0236 86.1831 58.8884 88 62C88.9486 67.9763 89.0018 74.1775 86 79.5625C82.3512 84.4482 77.7068 86.5467 71.7987 87.5361C68.1385 87.9831 64.6483 88.1204 60.9631 88.1136C60.2989 88.1137 59.6346 88.1138 58.9502 88.114C56.7806 88.1133 54.611 88.1056 52.4414 88.0977C50.9268 88.0958 49.4123 88.0944 47.8977 88.0934C43.9308 88.0896 39.964 88.0798 35.9971 88.0687C31.2271 88.0566 26.4571 88.0521 21.6871 88.0462C14.458 88.0366 7.22906 88.0174 0 88C0 66.55 0 45.1 0 23Z" fill="#415575"/>
<path d="M380 21.7501C380.723 21.9068 381.446 22.0635 382.191 22.2249C389.772 24.1008 394.499 27.8739 399 34.0001C402.604 41.1954 402.096 51.4462 399.812 59.0626C396.701 66.6346 392.576 69.6068 385.305 72.9219C376.173 75.9009 367.107 76.3395 357.562 76.3126C356.425 76.3287 355.287 76.3448 354.115 76.3614C342.484 76.368 334.581 74.8438 325 68.0001C324.67 74.6001 324.34 81.2001 324 88.0001C319.71 88.0001 315.42 88.0001 311 88.0001C311 66.5501 311 45.1001 311 23.0001C315.29 23.0001 319.58 23.0001 324 23.0001C324.33 24.6501 324.66 26.3001 325 28.0001C325.825 27.2369 326.65 26.4738 327.5 25.6876C340.895 16.3135 364.888 18.4735 380 21.7501Z" fill="#414D6C"/>
<path d="M443 6.00003C445.937 8.06253 445.937 8.06253 448 11C447.7 16.0616 446.342 19.9837 444.164 24.5274C443.884 25.12 443.604 25.7126 443.315 26.3232C442.427 28.199 441.527 30.0684 440.625 31.9375C433.556 44.6664 433.556 44.6664 430.812 58.5C430.874 59.655 430.936 60.81 431 62C437.71 61.0597 441.588 56.9705 445.754 51.8399C451.787 43.4554 456.898 34.3801 462.058 25.4414C462.678 24.3677 463.299 23.2939 463.937 22.1875C464.483 21.2323 465.028 20.2771 465.59 19.293C467 17 467 17 469 15C472.062 14.8125 472.062 14.8125 475 15C477.146 17.146 476.306 21.2009 476.326 24.0865C476.123 37.1692 472.897 50.2907 470 63C471.146 63.1096 472.292 63.2192 473.473 63.3321C475.003 63.4916 476.532 63.6518 478.062 63.8125C478.815 63.8828 479.567 63.953 480.342 64.0254C486.199 64.6593 491.684 65.6837 496 70C496.704 75.936 495.935 78.9755 492.387 83.75C491 85 491 85 488 85C489.204 82.5064 490.454 80.3186 492 78C492.167 74.8748 492.167 74.8748 492 72C488.972 71.1389 486.157 70.8177 483.015 70.6836C482.081 70.6417 481.146 70.5998 480.183 70.5567C479.215 70.5174 478.247 70.478 477.25 70.4375C475.775 70.3728 475.775 70.3728 474.269 70.3067C471.846 70.2008 469.423 70.0987 467 70C466.89 70.6182 466.781 71.2364 466.668 71.8733C460.348 105.65 439.113 137.691 410.883 157.148C391.119 169.761 368.807 178.32 345 175C337.374 173.138 331.176 168.608 327 162C323.22 155.701 322.923 149.213 324 142C331.457 119.752 352.664 106.094 372.625 96C399.189 82.9276 427.368 74.2513 456 67C460.07 50.6158 460.07 50.6158 463 34C462.455 34.883 461.909 35.7661 461.348 36.6758C443.524 65.1913 443.524 65.1913 430 70C426.812 70.4375 426.812 70.4375 424 70C421.191 67.7531 421.015 66.121 420.562 62.5625C421.254 48.9669 428.908 36.3767 434.826 24.4727C437.139 19.6002 438.366 15.3859 439 10C434.224 10.4682 430.955 11.2434 427 14C428.408 9.77603 430.829 9.02086 434.652 7.02738C437.742 5.6751 439.687 5.24712 443 6.00003ZM443.023 75.836C442.349 76.0307 441.674 76.2254 440.979 76.426C438.775 77.0667 436.575 77.7194 434.375 78.375C433.621 78.5984 432.866 78.8217 432.089 79.0517C411.811 85.076 391.521 91.6242 373 102C372.421 102.322 371.842 102.644 371.246 102.975C363.289 107.45 356.451 112.548 350 119C349.268 119.732 348.535 120.464 347.781 121.219C338.818 130.717 335.602 139.751 335.722 152.645C336.202 158.45 338.763 160.818 342.812 164.688C351.551 171.028 360.672 171.122 371.056 169.723C386.015 167.167 398.703 159.97 410 150C410.83 149.301 411.66 148.603 412.515 147.883C433.944 129.412 447.388 102.889 455 76C455 75.34 455 74.68 455 74C450.686 73.7602 447.16 74.6376 443.023 75.836Z" fill="#454F6D"/>
<path d="M503 23C522 23 522 23 526.812 27.3125C527.837 28.8923 528.857 30.4759 529.817 32.0952C531.682 35.0976 533.824 37.8833 535.942 40.7104C537.758 43.1362 539.549 45.5796 541.336 48.0273C546.774 55.4401 552.388 62.7189 558 70C563.256 63.7793 568.21 57.4376 572.898 50.7815C577.289 44.5542 581.82 38.432 586.354 32.3086C586.928 31.5326 587.502 30.7566 588.094 29.957C588.606 29.2659 589.119 28.5747 589.646 27.8625C590.804 26.2698 591.908 24.6383 593 23C599.93 23 606.86 23 614 23C614 44.45 614 65.9 614 88C609.71 88 605.42 88 601 88C600.67 70.18 600.34 52.36 600 34C595.71 40.27 591.42 46.54 587 53C584.151 57.1083 581.3 61.2141 578.438 65.3125C577.102 67.2249 575.768 69.1376 574.434 71.0508C573.825 71.9116 573.216 72.7725 572.589 73.6594C571.271 75.6007 570.162 77.5384 569.043 79.5938C567 82 567 82 563.242 83.043C557.146 83.4677 551.956 83.5598 547.047 79.6445C544.873 76.8215 542.979 74.0228 541.176 70.959C539.162 67.6044 536.871 64.4531 534.625 61.25C532.769 58.5275 530.913 55.805 529 53C523.06 44.585 523.06 44.585 517 36C516.67 53.16 516.34 70.32 516 88C511.71 88 507.42 88 503 88C503 66.55 503 45.1 503 23Z" fill="#414866"/>
<path d="M275 38.9999C280.421 44.8379 280.286 49.8439 280.215 57.5429C279.781 64.5282 277.214 68.3138 272 72.9999C263.422 77.4951 253.759 77.3829 244.312 77.4374C242.603 77.4525 242.603 77.4525 240.859 77.468C231.226 77.3696 221.641 76.304 214 69.9999C209.576 65.418 208.871 59.6753 208.625 53.5624C208.761 46.9464 210.649 42.4159 215.25 37.6874C229.842 28.7331 261.699 27.5666 275 38.9999Z" fill="white"/>
<path d="M355.25 31.6875C356.895 31.6948 356.895 31.6948 358.573 31.7024C378.618 31.9914 378.618 31.9914 384.797 37.4883C388.343 41.5311 388.279 44.2288 388.219 49.457C387.844 53.8188 386.307 56.7376 383.187 59.75C374.791 64.548 365.186 64.2052 355.812 64.25C354.752 64.2706 353.692 64.2912 352.6 64.3125C344.05 64.3542 335.283 63.6555 327.875 59.0625C323.988 54.7866 323.559 51.1078 323.684 45.4726C324.279 40.8167 326.603 38.15 330.125 35.25C338.098 31.7834 346.681 31.6422 355.25 31.6875Z" fill="white"/>
<path d="M99 23C128.7 23 158.4 23 189 23C189 26.96 189 30.92 189 35C176.46 35 163.92 35 151 35C151 52.49 151 69.98 151 88C146.71 88 142.42 88 138 88C138 70.51 138 53.02 138 35C125.13 35 112.26 35 99 35C99 31.04 99 27.08 99 23Z" fill="#425372"/>
<path d="M13 60C20.7413 59.9506 28.4825 59.9143 36.2239 59.8902C38.8574 59.8801 41.4908 59.8665 44.1243 59.8492C47.9097 59.8249 51.695 59.8135 55.4805 59.8047C56.6577 59.7944 57.835 59.7841 59.0479 59.7734C60.1487 59.7733 61.2494 59.7731 62.3835 59.773C63.8325 59.7663 63.8325 59.7663 65.3107 59.7595C69.362 60.1218 72.1166 61.1167 75 64C75.6368 69.64 75.6368 69.64 75 72C71.4135 75.4687 69.1638 76.4982 64.2 76.4541C63.0591 76.4538 61.9183 76.4535 60.743 76.4532C59.522 76.4326 58.301 76.4119 57.043 76.3907C55.7849 76.385 54.5268 76.3793 53.2305 76.3735C49.8978 76.3549 46.5661 76.319 43.2336 76.2747C39.8284 76.2337 36.423 76.2155 33.0176 76.1953C26.3447 76.1513 19.6725 76.0822 13 76C13 70.72 13 65.44 13 60Z" fill="white"/>
<path d="M13 35.0001C20.7596 34.9013 28.5188 34.8286 36.2788 34.7803C38.9192 34.7602 41.5595 34.7329 44.1997 34.6983C47.9926 34.6498 51.785 34.6271 55.5781 34.6094C57.3517 34.5785 57.3517 34.5785 59.1612 34.5469C60.262 34.5466 61.3629 34.5463 62.4971 34.546C63.4653 34.5371 64.4334 34.5282 65.431 34.519C68.7742 35.145 69.9486 36.3324 72 39.0001C72.5 42.5626 72.5 42.5626 72 46.0001C69.8387 48.1694 68.4762 48.9332 65.431 49.3608C64.4628 49.3542 63.4946 49.3475 62.4971 49.3406C60.8458 49.3403 60.8458 49.3403 59.1612 49.34C57.9788 49.3245 56.7964 49.309 55.5781 49.293C54.363 49.2888 53.1479 49.2845 51.8959 49.2802C48.0137 49.2634 44.132 49.2257 40.25 49.1876C37.6185 49.1725 34.987 49.1588 32.3555 49.1465C25.9034 49.1135 19.4518 49.0617 13 49.0001C13 44.3801 13 39.7601 13 35.0001Z" fill="white"/>
<path d="M493 79C493.33 79.66 493.66 80.32 494 81C492.688 83 492.688 83 491 85C490.01 85 489.02 85 488 85C489.37 81.8388 489.989 81.0073 493 79Z" fill="#4D5571"/>
</g>
<defs>
<clipPath id="clip0_39_691">
<rect width="614" height="176" fill="white"/>
</clipPath>
</defs>
</svg>
