<?xml version="1.0" encoding="utf-8" ?>
<svg xmlns="http://www.w3.org/2000/svg" xmlns:xlink="http://www.w3.org/1999/xlink" width="1024" height="1024">
	<path fill="#FFFEFE" d="M0 0L1024 0L1024 1024L0 1024L0 0Z"/>
	<path d="M278.414 164.823Q282.364 161.581 286.395 158.44Q290.427 155.3 294.537 152.263Q298.647 149.227 302.834 146.296Q307.02 143.366 311.28 140.543Q315.54 137.72 319.87 135.007Q324.201 132.294 328.599 129.692Q332.998 127.091 337.461 124.602Q341.925 122.114 346.45 119.74Q350.976 117.367 355.561 115.109Q360.145 112.852 364.786 110.713Q369.427 108.573 374.121 106.553Q378.815 104.532 383.559 102.633Q388.303 100.733 393.094 98.9547Q397.885 97.1766 402.719 95.5215Q407.554 93.8663 412.43 92.3352Q417.305 90.804 422.218 89.3978C433.855 86.0548 445.769 82.9274 457.72 80.933Q469.263 79.037 480.906 77.9149Q492.55 76.7929 504.242 76.4497Q515.934 76.1065 527.624 76.5438Q539.313 76.981 550.947 78.1968C607.297 83.6699 656.931 102.415 704.457 132.642C717.834 141.15 730.946 150.134 743.077 160.372Q757.358 172.67 770.532 186.147Q783.706 199.625 795.676 214.182C876.17 312.24 917.977 432.407 933.395 557.233C939.01 602.689 941.418 649.463 936.902 695.109C932.104 743.602 921.21 791.339 898.354 834.72Q893.147 844.665 887.135 854.144C884.321 858.539 881.172 862.818 878.624 867.37C882.054 867.383 885.696 867.155 889.09 867.595C880.002 868.15 870.811 867.969 861.707 868.076Q841.438 868.467 821.165 868.61C807.979 869.693 794.489 869.395 781.255 869.462Q751.133 869.446 721.015 869.97C710.985 870.129 699.704 869.01 689.888 870.732C693.24 873.762 696.57 873.14 700.781 873.095C699.197 873.359 697.65 873.622 696.045 873.694C697.253 876.709 747.906 915.779 755.969 922.467C759.068 925.037 762.75 927.357 765.436 930.349C766.462 931.493 767.066 932.442 767.145 934.023C764.538 938.402 694.641 968.358 683.573 973.349C667.9 980.416 652.391 987.858 636.64 994.745C630.893 989.514 624.577 984.838 618.487 980.006Q602.62 967.319 586.515 954.937Q558.561 932.974 530.926 910.613C522.61 904.004 507.026 894.967 501.943 886.293C497.333 887.286 490.014 888.432 485.578 886.67C465.527 890.296 443.836 888.683 424.127 883.89C416.914 882.136 409.302 879.023 401.857 878.855C381.705 878.4 361.51 878.905 341.353 878.878Q289.762 878.372 238.168 878.548L63.3028 877.942C60.9757 877.957 58.1183 878.017 56.1029 876.761L56.257 875.981C57.8576 875.189 59.4263 874.959 61.2037 874.837C67.14 874.432 73.4587 875.003 79.4387 875.036L117.955 875.115C120.879 875.026 123.797 874.932 126.723 874.954C104.433 846.009 89.597 810.917 80.5353 775.697C49.1443 653.689 72.0285 491.86 122.415 377.067Q131.066 357.522 140.931 338.56Q150.796 319.599 161.835 301.296C166.27 293.889 171.677 287.085 176.031 279.652L176.339 279.118C174.948 275.802 172.341 272.377 170.536 269.201C164.496 258.578 159.299 247.685 157.094 235.562C154.054 218.848 158.738 201.23 168.367 187.372C181.04 169.133 203.796 157.342 225.271 153.576C246.738 149.812 260.824 152.535 278.414 164.823Z"/>
	<path fill="#FEE5A3" d="M278.414 164.823Q282.364 161.581 286.395 158.44Q290.427 155.3 294.537 152.263Q298.647 149.227 302.834 146.296Q307.02 143.366 311.28 140.543Q315.54 137.72 319.87 135.007Q324.201 132.294 328.599 129.692Q332.998 127.091 337.461 124.602Q341.925 122.114 346.45 119.74Q350.976 117.367 355.561 115.109Q360.145 112.852 364.786 110.713Q369.427 108.573 374.121 106.553Q378.815 104.532 383.559 102.633Q388.303 100.733 393.094 98.9547Q397.885 97.1766 402.719 95.5215Q407.554 93.8663 412.43 92.3352Q417.305 90.804 422.218 89.3978C433.855 86.0548 445.769 82.9274 457.72 80.933Q469.263 79.037 480.906 77.9149Q492.55 76.7929 504.242 76.4497Q515.934 76.1065 527.624 76.5438Q539.313 76.981 550.947 78.1968C607.297 83.6699 656.931 102.415 704.457 132.642C717.834 141.15 730.946 150.134 743.077 160.372Q757.358 172.67 770.532 186.147Q783.706 199.625 795.676 214.182C876.17 312.24 917.977 432.407 933.395 557.233C939.01 602.689 941.418 649.463 936.902 695.109C932.104 743.602 921.21 791.339 898.354 834.72Q893.147 844.665 887.135 854.144C884.321 858.539 881.172 862.818 878.624 867.37C882.054 867.383 885.696 867.155 889.09 867.595C880.002 868.15 870.811 867.969 861.707 868.076Q841.438 868.467 821.165 868.61C819.516 868.583 817.976 868.489 816.347 868.225C818.364 864.731 824.528 857.927 827.319 854.204C841.262 835.604 853.007 814.958 853.078 791.019C853.137 771.065 844.956 754.527 830.923 740.581C816.799 726.545 797.008 715.03 776.656 715.067C757.431 708.609 712.247 710.279 692.635 716.471Q674.742 629.591 655.928 542.905L643.632 484.869C640.977 471.971 639.13 458.125 634.724 445.719C631.801 437.486 627.356 429.773 623.294 422.06C615.99 408.188 608.353 394.46 601.341 380.44C597.087 371.934 588.945 351.725 581.237 346.702C577.838 344.487 573.589 344.261 569.703 345.139C564.171 346.39 560.791 349.809 554.815 349.217C555.577 346.165 564.443 336.062 566.806 333.05C581.649 314.136 601.971 286.488 603.258 261.787C603.838 250.646 600.583 240.008 594.848 230.535C580.655 207.096 556.578 188.751 529.876 182.385Q528.773 182.112 527.664 181.868Q526.555 181.623 525.44 181.406Q524.325 181.189 523.204 181.001Q522.084 180.812 520.96 180.652Q519.835 180.491 518.707 180.359Q517.579 180.227 516.448 180.124Q515.316 180.02 514.183 179.945Q513.049 179.87 511.914 179.823Q510.779 179.776 509.644 179.758Q508.508 179.74 507.372 179.751Q506.236 179.761 505.101 179.8Q503.966 179.84 502.832 179.907Q501.698 179.975 500.566 180.071Q499.434 180.167 498.305 180.292Q497.176 180.416 496.05 180.569Q494.925 180.722 493.803 180.903Q492.682 181.084 491.565 181.294Q490.449 181.503 489.338 181.74Q488.227 181.978 487.123 182.243Q486.018 182.508 484.921 182.801Q483.823 183.094 482.733 183.414Q481.644 183.735 480.562 184.083Q479.481 184.43 478.408 184.805Q477.336 185.18 476.274 185.582Q475.211 185.983 474.159 186.412Q473.107 186.84 472.066 187.295Q471.025 187.749 469.996 188.23Q468.966 188.711 467.95 189.217Q466.933 189.723 465.929 190.255Q464.925 190.787 463.935 191.344Q462.945 191.901 461.969 192.482Q460.994 193.064 460.033 193.67C443.64 203.935 434.623 218.514 426.418 235.549C417.504 235.168 410.131 237.036 403.426 243.137C397.054 248.936 392.919 257.612 392.611 266.239C392.376 272.82 394.479 280.042 399.155 284.844C400.425 286.149 401.931 287.275 403.399 288.347C383.42 319.232 361.555 348.941 341.847 380.008C327.081 380.566 312.452 381.329 297.837 383.651C249.88 391.27 207.054 413.608 173.995 449.175C134.883 491.254 109.54 558.578 94.8393 613.175C89.6121 632.587 83.9658 654.215 84.6639 674.478C85.273 692.159 92.6743 707.13 105.56 719.092C116.526 729.273 131.593 738.636 145.518 744.326C146.925 747.462 146.234 759.179 146.32 763.342C147.091 800.456 147.666 838.032 151.534 874.969L126.723 874.954C104.433 846.009 89.597 810.917 80.5353 775.697C49.1443 653.689 72.0285 491.86 122.415 377.067Q131.066 357.522 140.931 338.56Q150.796 319.599 161.835 301.296C166.27 293.889 171.677 287.085 176.031 279.652L176.339 279.118C174.948 275.802 172.341 272.377 170.536 269.201C164.496 258.578 159.299 247.685 157.094 235.562C154.054 218.848 158.738 201.23 168.367 187.372C181.04 169.133 203.796 157.342 225.271 153.576C246.738 149.812 260.824 152.535 278.414 164.823Z"/>
	<path fill="#AFEBCC" d="M176.339 279.118C174.948 275.802 172.341 272.377 170.536 269.201C164.496 258.578 159.299 247.685 157.094 235.562C154.054 218.848 158.738 201.23 168.367 187.372C181.04 169.133 203.796 157.342 225.271 153.576C246.738 149.812 260.824 152.535 278.414 164.823C289.569 172.261 296.735 186.916 299.255 199.722C305.369 230.789 291.978 264.734 274.813 290.206C271.54 295.062 266.927 299.782 264.343 304.972C264.773 312.206 266.191 339.648 261.668 344.369C259.908 346.207 256.24 347.019 253.836 347.374C246.304 348.487 237.865 347.817 230.228 347.781C222.569 347.745 214.531 348.14 206.915 347.455C203.772 347.172 201.1 345.961 199.091 343.493C194.725 338.13 196.851 314.433 197.002 306.868C194.203 302.585 190.642 298.551 187.502 294.498C183.619 289.485 179.976 284.31 176.339 279.118Z"/>
	<path d="M209.002 238.232C214.349 237.203 219.955 236.86 225.371 236.242Q240.476 234.598 255.528 232.518C253.812 244.587 250.827 256.688 248.215 268.599L240.262 306.595C247.865 306.649 257.172 307.645 264.343 304.972C264.773 312.206 266.191 339.648 261.668 344.369C259.908 346.207 256.24 347.019 253.836 347.374C246.304 348.487 237.865 347.817 230.228 347.781C222.569 347.745 214.531 348.14 206.915 347.455C203.772 347.172 201.1 345.961 199.091 343.493C194.725 338.13 196.851 314.433 197.002 306.868C204.347 307.217 211.804 306.963 219.162 306.956Q213.8 272.636 209.002 238.232Z"/>
	<path fill="#AFEBCC" d="M247.366 236.694C248.776 236.376 250.588 236.456 252.051 236.371Q244.318 271.417 237.138 306.581C232.403 306.656 227.262 307.73 222.612 306.602C221.635 305.645 221.763 305.402 221.6 304.019C218.846 282.995 216.108 261.707 212.225 240.863C223.834 239.05 235.691 238.128 247.366 236.694Z"/>
	<path fill="#FFFEFE" d="M203.128 338.642C211.308 338.079 219.741 338.487 227.948 338.472C235.279 338.457 242.847 337.936 250.135 338.661C251.186 339.584 250.941 340.151 251.069 341.479C240.575 340.125 210.466 342.48 203.708 340.154L203.128 338.642Z"/>
	<path fill="#FFFEFE" d="M212.6 161.395C213.624 161.883 213.523 161.927 214.096 162.812C213.085 165.684 205.672 166.981 202.788 168.686C199.115 170.858 195.807 173.664 192.758 176.634C183.484 185.666 174.883 198.79 172.717 211.74C171.771 217.396 171.864 223.248 171.791 228.967C170.851 228.701 170.439 228.549 169.797 227.802C168.008 221.747 170.666 209.562 172.964 203.655C180.476 184.349 193.511 169.637 212.6 161.395Z"/>
	<path fill="#FC455B" d="M145.955 741.506C147.002 734.13 146.352 721.136 146.417 713.193C146.634 686.681 145.755 659.992 146.643 633.502C147.996 593.142 149.155 537.178 167.695 501.001Q169.461 497.518 171.534 494.21Q173.607 490.901 175.971 487.793Q178.335 484.686 180.97 481.804Q183.604 478.923 186.489 476.291C201.553 462.313 223.227 450.783 244.3 451.667C263.325 452.465 275.118 460.951 287.493 474.573L288.165 474.425C288.584 475.942 288.766 477.283 290.108 478.265L290.883 478.469L291.178 479.25C292.928 483.779 295.713 488.082 297.8 492.489C299.98 497.093 301.658 502.083 303.346 506.887C306.07 514.639 308.102 522.759 310.255 530.687Q317.933 560.048 324.511 589.674C327.309 602.162 330.404 614.601 333.004 627.13C334.65 635.056 336.127 647.627 338.987 654.724C339.071 655.849 339.045 656.586 339.611 657.595C345.892 688.166 353.348 718.502 359.955 749.004C361.29 755.165 365.707 771.462 365.574 776.953C365.849 778.467 365.75 779.024 366.883 780.113C365.456 784.333 384.984 866.097 386.971 875.503L241.139 875.694C237.312 865.734 234.511 855.468 231.302 845.304L214.104 789.989C202.483 752.154 190.021 714.6 178.601 676.694Q171.296 653.241 164.469 629.644C162.92 624.409 161.503 616.073 158.953 611.439C158.39 610.416 158.357 610.327 157.211 609.961L156.321 610.704C155.745 613.051 168.387 656.966 170.248 664.231Q197.038 769.601 221.927 875.436L167.285 875.171C150.896 875.238 134.323 875.861 117.955 875.115C120.879 875.026 123.797 874.932 126.723 874.954L151.534 874.969C147.666 838.032 147.091 800.456 146.32 763.342C146.234 759.179 146.925 747.462 145.518 744.326C146.005 743.211 145.969 742.696 145.955 741.506Z"/>
	<path fill="#FFFEFE" d="M145.955 741.506C129.041 732.572 110.963 723.04 99.1479 707.526C86.9922 691.565 86.4254 673.936 89.0664 654.81C93.4322 623.194 103.296 590.448 114.472 560.622C128.409 523.429 146.945 484.654 173.111 454.406C199.797 423.559 237.361 401.137 276.79 391.198C288.229 388.315 300.347 385.744 312.086 384.694C316.767 384.275 341.982 383.5 343.407 382.547C346.863 380.234 365.765 349.079 369.671 343.257L396.85 303.467C399.415 299.764 403.066 292.458 406.659 289.95C407.498 289.363 407.571 289.324 408.605 289.501C408.678 289.72 408.859 289.93 408.822 290.157C408.649 291.234 406.57 293.972 405.974 295.067C403.872 298.935 402.131 302.91 400.437 306.967C396.068 308.309 393.502 312.268 391.463 316.141C379.825 338.25 363.796 377.271 371.572 401.968C373.37 407.679 376.623 413.108 382.05 416.007C388.724 419.574 395.619 418.542 402.472 416.322L403.248 416.066C403.382 436.816 404.111 461.866 420.124 477.443C424.525 481.724 430.145 484.435 436.354 484.406C450.409 484.339 454.995 469.535 471.044 475.465C475.297 477.037 479.422 479.748 482.68 482.89C497.25 496.937 516.863 576.786 522.253 580.976Q516.948 604.958 509.861 628.476Q502.774 651.993 493.946 674.914C468.294 676.559 440.273 676.522 419.674 658.665C414.56 654.231 410.486 648.094 410.095 641.153C409.654 633.313 412.522 621.836 413.733 613.763Q418.19 582.583 423.072 551.466C425.034 538.912 427.677 526.158 428.888 513.524C429.035 511.986 429.076 510.605 428.502 509.146L427.6 508.927C427.328 509.204 426.951 509.408 426.785 509.76C425.146 513.245 423.784 528.85 422.995 533.778L411.152 609.947C409.74 619.548 409.169 629.742 406.659 639.107C405.67 642.798 404.147 646.301 401.702 649.271C394.75 657.715 381.864 659.807 371.535 659.892C360.431 659.983 349.665 657.502 338.987 654.724C336.127 647.627 334.65 635.056 333.004 627.13C330.404 614.601 327.309 602.162 324.511 589.674Q317.933 560.048 310.255 530.687C308.102 522.759 306.07 514.639 303.346 506.887C301.658 502.083 299.98 497.093 297.8 492.489C295.713 488.082 292.928 483.779 291.178 479.25L290.883 478.469L290.108 478.265C288.766 477.283 288.584 475.942 288.165 474.425L287.493 474.573C275.118 460.951 263.325 452.465 244.3 451.667C223.227 450.783 201.553 462.313 186.489 476.291Q183.604 478.923 180.97 481.804Q178.335 484.686 175.971 487.793Q173.607 490.901 171.534 494.21Q169.461 497.518 167.695 501.001C149.155 537.178 147.996 593.142 146.643 633.502C145.755 659.992 146.634 686.681 146.417 713.193C146.352 721.136 147.002 734.13 145.955 741.506Z"/>
	<path d="M288.165 474.425C288.133 471.501 287.706 467.751 288.416 464.956C289.595 464.496 289.52 464.495 290.695 464.966C291.776 468.513 291.006 474.641 290.883 478.469L290.108 478.265C288.766 477.283 288.584 475.942 288.165 474.425Z"/>
	<path fill="#FC455B" d="M776.656 715.067C797.008 715.03 816.799 726.545 830.923 740.581C844.956 754.527 853.137 771.065 853.078 791.019C853.007 814.958 841.262 835.604 827.319 854.204C824.528 857.927 818.364 864.731 816.347 868.225C817.976 868.489 819.516 868.583 821.165 868.61C807.979 869.693 794.489 869.395 781.255 869.462Q751.133 869.446 721.015 869.97C710.985 870.129 699.704 869.01 689.888 870.732C693.24 873.762 696.57 873.14 700.781 873.095C699.197 873.359 697.65 873.622 696.045 873.694C697.253 876.709 747.906 915.779 755.969 922.467C759.068 925.037 762.75 927.357 765.436 930.349C766.462 931.493 767.066 932.442 767.145 934.023C764.538 938.402 694.641 968.358 683.573 973.349C667.9 980.416 652.391 987.858 636.64 994.745C630.893 989.514 624.577 984.838 618.487 980.006Q602.62 967.319 586.515 954.937Q558.561 932.974 530.926 910.613C522.61 904.004 507.026 894.967 501.943 886.293C505.966 884.348 510.523 883.613 514.652 881.827L519.086 881.864C521.718 881.283 524.339 880.201 526.894 879.332C530.307 882.498 533.787 886.416 538.254 888.055C540.199 888.768 542.816 889.112 544.671 887.95C545.687 887.313 546.23 886.295 546.533 885.169C547.96 879.866 544.483 874.575 542.1 870.086L540.182 866.901C537.684 863.386 535.335 859.849 533.465 855.957C539.303 851.179 546.278 847.41 552.614 843.296C569.107 832.585 585.951 822.378 602.07 811.113C609.194 814.987 616.231 818.705 624.129 820.784C648.873 827.299 675.255 817.356 687.704 794.465C690.771 788.826 691.818 780.584 696.273 776.017C700.354 771.834 704.999 767.991 709.342 764.072C725.784 749.233 743.39 734.269 762.21 722.533C766.854 719.637 771.966 717.806 776.656 715.067Z"/>
	<path fill="#FFFEFE" d="M540.182 866.901C548.135 863.773 555.77 859.737 563.432 855.962Q580.141 847.794 596.727 839.38C605.31 835.027 614.331 829.739 623.567 826.992C626.234 826.198 628.481 825.72 631.103 826.888C643.904 832.595 654.903 843.928 666.042 852.341C672.624 857.313 684.979 864.711 689.888 870.732C693.24 873.762 696.57 873.14 700.781 873.095C699.197 873.359 697.65 873.622 696.045 873.694C697.253 876.709 747.906 915.779 755.969 922.467C759.068 925.037 762.75 927.357 765.436 930.349C766.462 931.493 767.066 932.442 767.145 934.023C764.538 938.402 694.641 968.358 683.573 973.349C667.9 980.416 652.391 987.858 636.64 994.745C630.893 989.514 624.577 984.838 618.487 980.006Q602.62 967.319 586.515 954.937Q558.561 932.974 530.926 910.613C522.61 904.004 507.026 894.967 501.943 886.293C505.966 884.348 510.523 883.613 514.652 881.827L519.086 881.864C521.718 881.283 524.339 880.201 526.894 879.332C530.307 882.498 533.787 886.416 538.254 888.055C540.199 888.768 542.816 889.112 544.671 887.95C545.687 887.313 546.23 886.295 546.533 885.169C547.96 879.866 544.483 874.575 542.1 870.086L540.182 866.901Z"/>
	<path fill="#B4B0FE" d="M540.182 866.901C548.135 863.773 555.77 859.737 563.432 855.962Q580.141 847.794 596.727 839.38C605.31 835.027 614.331 829.739 623.567 826.992C626.234 826.198 628.481 825.72 631.103 826.888C643.904 832.595 654.903 843.928 666.042 852.341C672.624 857.313 684.979 864.711 689.888 870.732C693.24 873.762 696.57 873.14 700.781 873.095C699.197 873.359 697.65 873.622 696.045 873.694C697.253 876.709 747.906 915.779 755.969 922.467C759.068 925.037 762.75 927.357 765.436 930.349C766.462 931.493 767.066 932.442 767.145 934.023C764.538 938.402 694.641 968.358 683.573 973.349C667.9 980.416 652.391 987.858 636.64 994.745C630.893 989.514 624.577 984.838 618.487 980.006Q602.62 967.319 586.515 954.937Q558.561 932.974 530.926 910.613C522.61 904.004 507.026 894.967 501.943 886.293C505.966 884.348 510.523 883.613 514.652 881.827L519.086 881.864C516.892 882.697 513.293 883.817 511.809 885.703C510.97 886.769 510.939 887.057 511.077 888.308C517.142 894.584 524.714 899.817 531.6 905.186L558.063 925.998L637.145 988.216C651.037 982.569 664.687 976.292 678.392 970.21Q702.171 959.896 725.711 949.048C737.149 943.737 749.713 939.226 760.409 932.579C752.943 925.407 744.213 919.097 736.064 912.685L697.252 882.292C691.819 878.075 686.764 873.391 681.299 869.223C671.733 861.927 661.781 855.084 652.351 847.607C647.463 843.73 643.055 839.171 638.02 835.495C635.911 833.955 633.639 832.555 631.157 831.709C627.853 830.584 625.065 830.703 621.764 831.651C612.288 834.37 603.287 840.309 594.477 844.67C577.121 853.26 559.665 861.948 542.1 870.086L540.182 866.901Z"/>
	<path d="M688.977 896.937C689.501 897.219 689.835 897.594 690.257 898.007C689.732 899.157 689.413 899.284 688.328 899.956C679.497 905.432 668.02 909.993 658.567 914.54C641.336 922.828 624.151 931.505 606.618 939.133C605.809 938.864 605.804 938.601 605.327 937.927L605.638 936.983C609.197 934.129 614.639 932.407 618.8 930.482L639.487 920.692L670.094 906.057C676.372 903.008 682.532 899.612 688.977 896.937Z"/>
	<path d="M721.915 928.514C722.499 929.162 722.598 929.459 722.864 930.265C722.634 930.594 722.473 930.983 722.175 931.252C720.514 932.751 713.957 934.745 711.495 935.873C688.92 946.215 666.712 957.464 644.01 967.504C643.245 966.789 643.226 966.719 643.011 965.69C644.788 962.775 713.495 931.972 721.915 928.514Z"/>
	<path d="M664.972 882.947C665.456 883.264 665.835 883.713 666.243 884.122L665.976 885.094C661.276 889.416 647.311 894.653 641.106 897.628C624.202 905.733 607.327 914.091 590.239 921.789C589.775 921.82 590.121 921.827 589.286 921.373L589.13 920.265C591.148 917.282 655.208 888.022 664.972 882.947Z"/>
	<path d="M689.299 918.415C689.904 918.382 690.174 918.584 690.707 918.842L690.963 919.848C688.259 922.662 631.57 948.8 624.253 952.062C623.453 951.971 623.107 951.737 622.42 951.344L622.596 950.457C626.032 947.301 633.883 944.716 638.373 942.55Q663.68 930.152 689.299 918.415Z"/>
	<path d="M642.193 868.946L642.932 869.026C643.745 869.762 643.764 869.493 643.837 870.692C640.48 874.21 628.817 878.44 623.858 880.884L574.658 905.528L573.196 905.919L572.852 905.458L573.182 904.162C576.163 900.832 632.723 873.803 642.193 868.946Z"/>
	<path d="M624.721 847.528C625.013 847.593 625.608 848.026 625.874 848.187L625.813 849.269C624.936 850.308 623.942 850.825 622.76 851.456C616.038 855.043 608.919 858.02 602.054 861.336C586.841 868.686 571.327 876.439 556.67 884.82C555.76 883.977 555.51 883.878 555.247 882.688C557.808 879.778 616.847 851.403 624.721 847.528Z"/>
	<path fill="#B4B0FE" d="M403.248 416.066L402.472 416.322C395.619 418.542 388.724 419.574 382.05 416.007C376.623 413.108 373.37 407.679 371.572 401.968C363.796 377.271 379.825 338.25 391.463 316.141C393.502 312.268 396.068 308.309 400.437 306.967C392.15 328.828 384.63 349.665 384.827 373.47C384.874 379.133 385.141 385.36 387.44 390.627C389.008 394.219 391.772 397.254 395.477 398.66C396.809 399.165 398.218 399.483 399.602 399.808C409.931 395.859 412.374 385.164 417.57 376.567C413.09 400.73 403.258 430.299 418.722 452.68C422.749 458.509 428.483 463.057 435.598 464.335C444.947 466.014 454.348 461.622 462.084 456.821L463.41 458.417C462.837 459.127 462.163 459.501 462.302 460.469C462.716 463.351 465.534 465.975 467.813 467.534C472.555 470.777 477.995 472.211 483.659 470.913C491.553 469.104 496.908 463.466 502.59 458.148C502.731 458.239 502.87 458.332 503.013 458.421C509.005 462.171 516.058 464.236 522.252 467.703C536.674 475.775 552.713 493.222 561.811 506.842C564.543 510.933 566.822 515.29 568.964 519.712C570.508 522.9 571.899 526.911 574.116 529.663C575.14 539.16 574.536 549.213 574.574 558.791L574.932 606.68L575.131 758.435C566.579 747.422 562.704 733.003 557.184 720.353C546.949 696.897 536.305 673.46 527.022 649.613C525.086 644.64 517.957 622.094 515.674 619.909L517.547 612.97C518.846 608.096 525.926 583.546 524.356 580.834C523.265 580.513 523.291 580.512 522.253 580.976C516.863 576.786 497.25 496.937 482.68 482.89C479.422 479.748 475.297 477.037 471.044 475.465C454.995 469.535 450.409 484.339 436.354 484.406C430.145 484.435 424.525 481.724 420.124 477.443C404.111 461.866 403.382 436.816 403.248 416.066Z"/>
	<path fill="#FFFEFE" d="M339.611 657.595C356.525 662.887 379.602 666.235 396.019 657.512C401.383 654.662 404.629 650.679 407.464 645.44C411.658 657.769 421.672 664.978 433.034 670.509C451.343 679.421 472.286 679.232 492.161 678.021C480.836 705.758 467.321 732.502 455.966 760.25C445.91 749.602 436.326 738.336 426.728 727.274C421.248 720.957 415.84 714.403 409.859 708.557C404.599 712.088 399.997 716.096 395.41 720.449C404.085 731.279 413.312 741.613 422.322 752.156Q439.723 772.758 457.433 793.095C450.48 794.804 443.39 796.381 436.567 798.558C423.379 795.108 410.219 791.637 397.253 787.413C391.675 756.522 391.71 739.42 396.726 708.38Q397.753 701.99 399.377 695.725C400.855 690 408.075 669.092 405.974 664.56C404.757 665.162 404.47 666.164 404.013 667.432C402.1 672.746 401.273 678.694 399.774 684.167C389.799 720.603 386.833 749.218 394.253 786.486C384.682 783.695 375.215 779.109 365.574 776.953C365.707 771.462 361.29 755.165 359.955 749.004C353.348 718.502 345.892 688.166 339.611 657.595Z"/>
	<path fill="#FFFEFE" d="M366.883 780.113C389.873 788.938 413.556 795.622 437.409 801.662C465.07 793.658 476.595 788.353 503.364 803.213C511.347 807.644 520.446 814.782 523.101 823.923C525.24 831.284 523.274 836.89 520.389 843.558L519.749 843.89C512.057 830.308 497.853 814.327 482.095 810.24C481.499 810.086 480.953 810.069 480.343 810.053L479.795 810.764C481.5 814.371 490.642 816.936 494.094 819.374C502.119 825.042 522.242 844.637 518.212 856.022C517.642 857.633 515.247 862.542 513.964 863.396C512.106 862.999 506.252 854.7 504.34 852.889C500.473 849.227 495.487 845.774 490.919 843.024C486.991 840.659 468.677 831.429 464.592 832.962L464.453 833.882C466.04 835.879 472.608 837.863 475.159 838.951C488.345 844.577 506.387 853.678 511.807 868.024C507.359 873.565 502.717 875.417 495.811 876.432C490.23 866.287 477.866 861.185 467.218 858.093C464.005 857.16 459.203 855.671 455.904 856.544L455.58 857.078C456.609 858.74 457.952 858.994 459.735 859.411C472.098 862.307 484.685 866.414 492.985 876.627C492.225 878.611 491.407 880.286 490.218 882.048C470.04 888.732 446.107 885.842 425.852 881.055C417.848 879.163 409.739 876.549 401.568 875.636C396.769 875.099 391.796 875.454 386.971 875.503C384.984 866.097 365.456 784.333 366.883 780.113Z"/>
	<path fill="#FEE5A3" d="M532.779 406.265C534.86 405.882 536.955 405.418 539.066 405.26C540.191 413.556 542.1 421.664 544.019 429.805C549.349 452.414 556.375 473.264 573.605 489.727C573.907 502.933 574.668 516.47 574.116 529.663C571.899 526.911 570.508 522.9 568.964 519.712C566.822 515.29 564.543 510.933 561.811 506.842C552.713 493.222 536.674 475.775 522.252 467.703C516.058 464.236 509.005 462.171 503.013 458.421C502.87 458.332 502.731 458.239 502.59 458.148C508.759 451.512 512.652 444.902 517.484 437.359C519.997 442.507 522.562 449.246 528.391 451.352C530.465 452.102 532.774 452.168 534.783 451.183C537.923 449.645 539.863 446.337 540.819 443.088C544.107 431.917 535.687 417.315 532.779 406.265Z"/>
	<path fill="#FFFEFE" d="M515.674 619.909C517.957 622.094 525.086 644.64 527.022 649.613C536.305 673.46 546.949 696.897 557.184 720.353C562.704 733.003 566.579 747.422 575.131 758.435C576.565 774.445 580.832 784.268 589.535 797.537C582.514 793.066 577.057 786.681 572.434 779.846C565.412 769.465 560.08 757.809 554.602 746.552C537.731 711.88 523.985 675.693 509.131 640.131C511.242 633.37 513.486 626.646 515.674 619.909Z"/>
	<path fill="#FBADCE" d="M495.888 879.935Q498.355 879.332 500.807 878.667C507.536 876.815 511.6 873.992 515.052 867.932C517.039 870.033 519.15 872.026 521.215 874.05L526.894 879.332C524.339 880.201 521.718 881.283 519.086 881.864L514.652 881.827C510.523 883.613 505.966 884.348 501.943 886.293C497.333 887.286 490.014 888.432 485.578 886.67C490.269 885.298 492.789 883.634 495.888 879.935Z"/>
	<path fill="#76D3E7" d="M519.749 843.89L520.389 843.558C526.594 857.765 534.103 870.767 538.279 885.855C530.937 879.537 523.445 872.833 516.819 865.773C521.132 855.824 522.17 854.872 519.749 843.89Z"/>
	<path fill="#FFFEFE" d="M462.084 456.821Q468.875 451.191 475.105 444.947Q481.335 438.703 486.95 431.9C490.668 427.305 493.883 421.577 498.124 417.503C491.967 432.346 476.838 449.642 463.41 458.417L462.084 456.821Z"/>
	<path fill="#FFFEFE" d="M571.376 347.596C571.616 347.584 571.855 347.568 572.095 347.561C575.65 347.462 579.617 348.453 582.183 351.036C584.849 353.719 630.132 440.68 632.658 448.472C636.904 461.566 638.735 476.146 641.586 489.662Q650.946 532.258 659.724 574.977L683.465 685.413C687.322 703.673 693.953 728.494 694.559 746.62C695.229 766.698 692.225 788.398 677.878 803.57C667.85 814.174 654.705 819.862 640.164 820.184C625.106 820.518 609.34 813.68 598.608 803.22C582.277 787.305 578.242 770.109 578.062 748.058Q578.363 617.995 576.668 487.942C572.978 484.711 569.42 481.433 566.413 477.538C550.418 456.817 546.375 427.378 541.23 402.374C536.812 402.446 533.21 403.044 529.072 404.615C531.545 413.553 537.703 426.654 538.476 435.035C538.816 438.715 538.681 443.645 536.078 446.576C534.85 447.96 533.09 449.016 531.193 448.983C528.678 448.939 526.608 447.108 525.17 445.207C518.049 435.789 510.384 406.4 512.371 394.805C513.978 385.427 523.766 377.764 531.16 372.626C537.829 367.993 551.277 360.665 559.112 365.828C561.729 367.553 563.168 370.399 566.471 370.978L566.989 370.576C566.985 370.428 566.999 370.278 566.975 370.132C566.616 367.917 564.29 366.026 562.579 364.813C556.535 360.531 548.364 360.486 541.748 363.574C539.444 364.65 537.312 366.452 534.78 366.861L534.336 366.277C534.746 363.335 536.827 360.912 539.038 359.061C544.123 354.806 551.482 352.098 558.116 352.755C563.42 353.279 569.657 355.893 573.012 360.202C574.25 361.793 575.146 363.718 576.496 365.203C577.302 366.09 577.404 366.119 578.532 366.124L579.061 365.243C578.931 364.807 578.857 364.51 578.687 364.103C575.717 356.98 570.249 353.242 563.422 350.367C566.058 349.202 568.586 348.318 571.376 347.596Z"/>
	<path d="M542.364 377.651C543.23 377.85 544.729 378.035 545.484 378.503C546.57 379.176 546.693 379.62 546.979 380.756L546.276 381.453C544.549 381.853 543.194 380.959 541.668 380.25C533.98 382.459 528.361 386.876 522.763 392.416C521.764 393.584 520.868 394.358 519.613 395.247L518.397 394.616L518.431 394.7C518.612 393.45 519.232 392.348 519.957 391.328C524.56 384.856 534.691 379.118 542.364 377.651Z"/>
	<path fill="#FFFEFE" d="M513.374 187.692L518.576 187.368C516.477 202.358 522.806 215.768 530.809 228.087C541.978 245.28 560.953 263.41 579.803 272.127C585.226 274.635 590.609 276.097 596.444 277.316C589.815 296.873 578.589 313.538 565.944 329.685C560.693 336.389 555.079 342.929 550.38 350.035C547.203 351.252 543.909 352.434 540.953 354.14C534.761 357.714 532.128 362.485 530.274 369.161Q528.864 368.704 527.494 368.139C514.431 362.845 502.781 351.864 497.245 338.795C507.856 323.642 519.792 309.778 529.437 293.887L533.389 297.893C534.962 299.589 536.587 301.209 537.816 303.18C536.014 303.944 534.819 304.744 533.877 306.506C532.681 308.745 532.295 311.732 533.08 314.167C533.616 315.832 535.107 317.543 536.752 318.2C537.924 318.668 539.119 318.498 540.19 317.864C542.944 316.234 543.535 313.203 544.209 310.351C546.242 313.222 548.744 317.595 551.566 319.683C552.417 320.314 552.005 320.174 553.081 320.01L553.304 319.162C551.676 311.489 532.378 292.177 525.225 286.737C514.43 292.401 503.965 302.192 495.341 310.813C490.19 315.962 483.243 325.185 476.877 328.187C470.227 328.368 439.562 316.449 433.459 312.678C436.863 301.811 442.59 292.924 445.645 280.96C451.908 256.44 444.713 241.277 462.431 219.862C474.804 204.908 493.36 189.555 513.374 187.692Z"/>
	<path d="M471.081 259.491C472.914 259.35 474.657 259.951 476.385 260.501C482.649 262.496 511.12 276.373 513.363 281.851C513.604 282.439 513.403 282.388 513.053 283.081C511.039 283.304 502 276.397 499.735 274.923C499.179 274.593 498.625 274.417 498.018 274.202C496.928 275.641 497.5 278.491 497.054 280.331C496.536 282.467 494.639 286.02 492.589 287.069C491.446 287.653 490.33 287.818 489.131 287.261C487.216 286.371 486.002 284.152 485.544 282.179C485.02 279.922 485.214 277.457 486.501 275.483C487.512 273.933 489.144 272.969 490.95 272.664C491.864 272.509 492.794 272.398 493.712 272.243C490.127 267.711 478.101 264.77 472.711 262.011C471.349 261.314 471.509 260.923 471.081 259.491Z"/>
	<path fill="#FEE5A3" d="M507.667 645.36C510.323 649.704 512.005 655.343 513.91 660.093L525.229 687.969Q540.226 724.415 557.421 759.877L524.176 775.252C517.061 778.522 509.964 782.051 502.627 784.787C495.794 787.296 488.648 788.47 481.523 789.828C473.421 781.417 465.972 772.493 458.31 763.692C463.149 748.392 470.481 733.435 477.188 718.86C488.354 694.598 499.47 670.842 507.667 645.36Z"/>
	<path fill="#76D3E7" d="M413.337 716.51C418.615 721.604 423.368 727.826 428.252 733.329Q440.971 747.498 453.383 761.937C461.556 771.526 469.424 781.29 478.106 790.432C474.215 790.467 470.388 790.477 466.529 791.033L460.472 792.107C452.12 783.97 444.802 774.386 437.302 765.47L403.425 725.572Q408.443 721.109 413.337 716.51Z"/>
	<path fill="#FFFEFE" d="M419.589 238.576C422.139 238.39 424.664 238.651 427.159 239.198C429.446 239.7 431.019 240.137 432.312 242.165C433.09 249.054 427.744 259.193 424.706 265.201C421.669 271.208 415.358 284.559 409.054 286.654C407.332 286.164 405.629 285.63 404.096 284.683C399.798 282.027 397.065 277.772 395.981 272.884C394.384 265.685 396.249 258.034 400.1 251.848C404.657 244.53 411.336 240.464 419.589 238.576Z"/>
	<path fill="#FFFEFE" d="M451.17 344.573C452.686 344.481 454.246 344.351 455.764 344.411C465.238 344.786 475.475 350.581 481.783 357.451C485.024 360.981 489.926 367.367 489.403 372.393C489.237 373.992 489.115 374.743 487.87 375.721C483.585 374.346 479.394 372.01 475.494 369.792C468.65 365.899 451.727 355.23 449.584 347.472C449.841 345.861 450.024 345.765 451.17 344.573Z"/>
	<path fill="#FFFEFE" d="M490.89 790.646C497.774 790.152 504.048 790.391 510.134 794.212C518.835 799.674 521.389 808.06 523.679 817.429C522.482 816.145 521.472 814.686 520.416 813.285C511.353 801.903 497.714 796.85 484.524 791.979L490.89 790.646Z"/>
	<path fill="#FFFEFE" d="M491.999 186.655L492.75 187.158L492.813 188.159C490.074 190.501 480.869 192.731 477.183 194.326C462.65 200.617 453.142 210.793 442.697 222.178L441.824 221.417C441.634 219.838 442.188 218.853 443.083 217.559C453.174 202.965 474.745 190.003 491.999 186.655Z"/>
	<path fill="#FFFEFE" d="M533.999 194.7C535.236 195.182 535.583 195.454 535.937 196.784C536.69 199.621 537.19 202.565 538.1 205.354C541.348 215.305 548.404 225.318 555.113 233.224C556.871 235.296 558.988 237.021 560.721 239.085C561.821 240.395 561.846 240.388 561.704 242.115C561.252 242.13 560.945 242.169 560.483 242.036C555.377 240.566 545.666 225.545 543.027 221.122C539.246 214.786 532.077 202.284 533.999 194.7Z"/>
	<path fill="#76D3E7" d="M409.105 712.374C409.95 712.745 410.149 712.99 410.738 713.668C410.269 716.435 404.051 720.334 401.779 722.061C401.203 722.049 400.708 721.808 400.169 721.617L399.941 720.812C401.967 717.103 405.773 714.816 409.105 712.374Z"/>
	<path d="M889.09 867.595C908.844 867.958 928.722 867.221 948.481 866.893C956.352 866.763 964.645 866.105 972.475 866.559C973.967 866.646 975.169 866.737 976.51 867.458L976.495 868.35C975.309 869.402 973.146 869.397 971.598 869.507C963.175 870.103 954.485 869.758 946.029 869.867L899.943 870.512L781.188 872.262L723.475 872.786C715.927 872.898 708.318 872.736 700.781 873.095C696.57 873.14 693.24 873.762 689.888 870.732C699.704 869.01 710.985 870.129 721.015 869.97Q751.133 869.446 781.255 869.462C794.489 869.395 807.979 869.693 821.165 868.61Q841.438 868.467 861.707 868.076C870.811 867.969 880.002 868.15 889.09 867.595Z"/>
</svg>
